<?xml version="1.0" standalone="no"?>
<!DOCTYPE svg PUBLIC "-//W3C//DTD SVG 20010904//EN"
 "http://www.w3.org/TR/2001/REC-SVG-20010904/DTD/svg10.dtd">
<svg version="1.0" xmlns="http://www.w3.org/2000/svg"
 width="96.000000pt" height="96.000000pt" viewBox="0 0 96.000000 96.000000"
 preserveAspectRatio="xMidYMid meet">

<g transform="translate(0.000000,96.000000) scale(0.100000,-0.100000)"
fill="#000000" stroke="none">
<path d="M490 884 c-8 -2 -81 -10 -162 -18 -164 -15 -198 -27 -198 -74 1 -106
57 -629 71 -655 13 -23 40 -33 111 -42 46 -6 58 -11 67 -31 15 -33 61 -34 61
-1 0 21 8 24 88 40 48 10 128 22 177 28 123 13 131 22 127 137 -1 48 -10 184
-20 302 l-17 215 -29 5 c-25 4 -31 11 -40 50 l-11 45 -105 1 c-58 1 -112 0
-120 -2z m127 -50 c-3 -3 -12 -4 -19 -1 -8 3 -5 6 6 6 11 1 17 -2 13 -5z m-49
-11 c-10 -2 -28 -2 -40 0 -13 2 -5 4 17 4 22 1 32 -1 23 -4z m-71 -9 c-3 -3
-12 -4 -19 -1 -8 3 -5 6 6 6 11 1 17 -2 13 -5z m183 -4 c11 -7 -1 -9 -40 -9
-50 2 -52 2 -20 9 19 4 37 8 40 9 3 0 12 -4 20 -9z m-350 -10 c-57 -14 -166
-23 -157 -14 8 9 98 20 162 21 29 1 29 1 -5 -7z m90 -26 c-36 -7 -105 -15
-155 -18 l-90 -5 100 18 c55 10 125 18 155 19 l55 0 -65 -14z m293 9 c-7 -2
-21 -2 -30 0 -10 3 -4 5 12 5 17 0 24 -2 18 -5z m-130 -10 c-7 -2 -19 -2 -25
0 -7 3 -2 5 12 5 14 0 19 -2 13 -5z m199 -63 c2 -50 0 -60 -12 -58 -8 2 -17
16 -20 32 -4 24 -12 31 -44 40 -60 17 -57 34 6 39 29 2 56 4 60 5 3 1 8 -25
10 -58z m-137 28 c6 -12 25 -27 44 -33 22 -7 37 -21 46 -42 7 -17 22 -34 32
-37 16 -5 20 -24 31 -150 12 -131 11 -148 -5 -199 -15 -45 -23 -57 -49 -66
-17 -6 -36 -22 -44 -35 -10 -19 -24 -26 -64 -31 -28 -4 -78 -13 -111 -21 -107
-24 -276 -12 -302 22 -6 8 -14 37 -17 62 -14 123 -37 347 -44 432 l-7 95 100
2 c87 1 360 17 375 21 3 1 10 -8 15 -20z m166 -541 c-15 -38 -91 -66 -91 -33
0 8 17 21 39 29 30 12 40 23 46 49 8 31 9 32 12 7 2 -14 -1 -37 -6 -52z"/>
<path d="M460 568 c-135 -17 -123 -5 -115 -111 4 -51 9 -95 12 -99 8 -14 237
0 294 17 33 11 39 48 21 127 l-17 73 -60 1 c-33 1 -94 -3 -135 -8z m188 -59
c17 -70 15 -106 -4 -113 -20 -8 -263 -30 -268 -25 -2 2 -6 40 -7 84 l-4 80 80
7 c44 4 87 9 95 12 8 2 33 4 56 5 l41 1 11 -51z"/>
<path d="M510 519 c-25 -4 -60 -11 -79 -14 -20 -4 -30 -10 -24 -16 5 -5 42 -3
93 6 47 8 86 15 88 15 2 0 0 5 -3 10 -7 11 -12 11 -75 -1z"/>
<path d="M475 473 c-22 -3 -44 -9 -50 -15 -7 -7 11 -9 60 -4 39 3 80 6 93 6
12 0 22 5 22 10 0 10 -44 11 -125 3z"/>
<path d="M480 426 c-32 -7 -50 -15 -43 -19 14 -9 153 12 168 24 13 12 -58 9
-125 -5z"/>
</g>
</svg>
